<svg xmlns="http://www.w3.org/2000/svg" width="110" height="77" fill="none"><path fill="#5061FC" d="m75 38 24-7v31a6 6 0 0 1-4 5L58 77h-6L15 67a5 5 0 0 1-4-5V31l24 7 2 1a8 8 0 0 0 7-5l11-18 11 18a8 8 0 0 0 9 4" opacity=".6"/><path fill="#5061FC" d="m110 19-9-17a3 3 0 0 0-3-2L55 6l16 26a3 3 0 0 0 3 1l34-10a3 3 0 0 0 2-4M9 2 0 19a3 3 0 0 0 2 4l34 10a3 3 0 0 0 3-1L55 6 12 0a3 3 0 0 0-3 2"/><path stroke="#222" stroke-linecap="round" stroke-linejoin="round" stroke-width="1.5" d="M84 59v-2l-1-1-2-1-5 2-2 1-1 2v2m5-9c2 0 3-2 3-3 0-2-1-2-3-2l-2 3c0 2 1 3 2 2" opacity=".2"/><mask id="a" width="89" height="61" x="10" y="16" maskUnits="userSpaceOnUse" style="mask-type:alpha"><path fill="#5061FC" d="m75 38 24-7v31a6 6 0 0 1-4 5L58 77h-6L15 67a5 5 0 0 1-4-5V31l24 7 2 1a8 8 0 0 0 7-5l11-18 11 18a8 8 0 0 0 9 4" opacity=".6"/></mask><g mask="url(#a)"><path fill="#5061FC" d="M54 15h2v63l-1 1-1-1z" opacity=".37"/></g></svg>