<svg xmlns="http://www.w3.org/2000/svg" width="58" height="58" fill="none"><path fill="#FC5050" d="M34.44 9.06a14.5 14.5 0 1 0 0 29 14.5 14.5 0 0 0 0-29Zm0-9.06a23.56 23.56 0 1 1 0 47.12 23.56 23.56 0 0 1 0-47.12Z"/><path fill="#FC5050" d="m.79 50.14 11.3-11.29a2.72 2.72 0 0 1 1.92-.8h1.84l4.08 4.09v1.84a2.72 2.72 0 0 1-.8 1.93L7.86 57.2a2.7 2.7 0 0 1-3.84 0L.8 54a2.73 2.73 0 0 1-.01-3.86Z" opacity="0.6"/><path fill="#FC5050" d="M31.9 27.1v-4.5h2.4c.92 0 1.6-.23 2.05-.72.45-.5.67-1.1.67-1.8 0-.5-.1-.94-.31-1.3a2 2 0 0 0-.85-.88c-.37-.22-.8-.33-1.32-.33a2.55 2.55 0 0 0-2.28 1.26c-.2.38-.3.81-.3 1.3H28c0-1.14.25-2.17.75-3.08a5.65 5.65 0 0 1 2.27-2.22c1-.55 2.2-.83 3.62-.83 1.31 0 2.44.25 3.39.75A5.3 5.3 0 0 1 41 19.74v.3c0 1.11-.27 2.08-.8 2.93a5.33 5.33 0 0 1-2.28 1.96c-1 .47-2.21.72-3.64.75l1.78-1.42-.05 2.84h-4.1Z"/><path fill="#FC5050" d="M31.6 29.27v4.17h4.7v-4.17h-4.7Z" opacity="0.6"/></svg>